<svg xmlns="http://www.w3.org/2000/svg" width="45" height="42.188" viewBox="0 0 45 42.188">
  <path id="Icon_awesome-cat" data-name="Icon awesome-cat" d="M25.54,16.312a16.883,16.883,0,0,0-14.29,7.554V16.312A8.446,8.446,0,0,0,2.813,7.875a2.812,2.812,0,1,0,0,5.625,2.816,2.816,0,0,1,2.813,2.813v22.5a5.63,5.63,0,0,0,5.625,5.625H26.719a1.406,1.406,0,0,0,1.406-1.406V41.625a2.813,2.813,0,0,0-2.812-2.812H22.5l11.25-8.437V43.031a1.406,1.406,0,0,0,1.406,1.406h2.813a1.406,1.406,0,0,0,1.406-1.406V24.913a11.138,11.138,0,0,1-2.812.4A11.268,11.268,0,0,1,25.54,16.312ZM39.375,7.875H33.75L28.125,2.25V14.062a8.438,8.438,0,1,0,16.875,0V2.25Zm-6.328,7.031A1.406,1.406,0,1,1,34.453,13.5,1.406,1.406,0,0,1,33.047,14.906Zm7.031,0A1.406,1.406,0,1,1,41.484,13.5,1.406,1.406,0,0,1,40.078,14.906Z" transform="translate(0 -2.25)" fill="#58b5c9"/>
</svg>
