<svg xmlns="http://www.w3.org/2000/svg" width="45" height="40" viewBox="0 0 45 40">
  <path id="Icon_awesome-hand-holding-heart" data-name="Icon awesome-hand-holding-heart" d="M21.507,19.569a1.361,1.361,0,0,0,1.992,0l8.507-8.921a6.476,6.476,0,0,0-.437-9.281,5.938,5.938,0,0,0-8.195.6l-.875.914-.867-.906a5.932,5.932,0,0,0-8.195-.609A6.482,6.482,0,0,0,13,10.648Zm22.655,6.062a2.586,2.586,0,0,0-3.328,0L33.615,31.4A4.974,4.974,0,0,1,30.491,32.5H21.249a1.25,1.25,0,0,1,0-2.5h6.117a2.6,2.6,0,0,0,2.6-2.078A2.5,2.5,0,0,0,27.5,25H15A9.194,9.194,0,0,0,9.21,27.053L5.578,30H1.25A1.254,1.254,0,0,0,0,31.248v7.5A1.254,1.254,0,0,0,1.25,40H29.123A5.006,5.006,0,0,0,32.248,38.9L44.06,29.452A2.5,2.5,0,0,0,44.162,25.632Z" transform="translate(0 0.002)" fill="#58b5c9"/>
</svg>
