<svg id="组件_11_1" data-name="组件 11 – 1" xmlns="http://www.w3.org/2000/svg" width="284" height="75" viewBox="0 0 284 75">
  <g id="组件_1_1" data-name="组件 1 – 1">
    <g id="组_1" data-name="组 1" transform="translate(50.086 72.379)">
      <path id="路径_1" data-name="路径 1" d="M1445.9,1008.952" transform="translate(-1445.899 -1008.952)" fill="#58b5c9" stroke="#707070" stroke-linecap="round" stroke-linejoin="round" stroke-width="4.698"/>
    </g>
    <g id="组_2" data-name="组 2" transform="translate(42.198 13.066)">
      <path id="路径_2" data-name="路径 2" d="M1424.444,754.331m-14.545,2.717,8.352-20.512" transform="translate(-1409.898 -736.536)" fill="#58b5c9" stroke="#707070" stroke-linecap="round" stroke-linejoin="round" stroke-width="5"/>
    </g>
    <g id="组_3" data-name="组 3">
      <path id="路径_3" data-name="路径 3" d="M1251.968,751.118a39.511,39.511,0,0,1-17.67-3.881,31.309,31.309,0,0,1-12.616-11.166c-5.162-8.106-5.794-17.934-1.649-25.648,2.58-4.8,9.3-12.85,25.478-13.584a9.547,9.547,0,0,1,1.509-3.545c.051-2.026.459-11.278,3.671-15.854a2.11,2.11,0,0,1,1.635-.913,2.322,2.322,0,0,1,1.87.851,27.9,27.9,0,0,1,5.323,8.9,17,17,0,0,1,3.686.253,18,18,0,0,1,4.573,1.47,28.38,28.38,0,0,1,12-4.38,2.145,2.145,0,0,1,1.854.639,2.12,2.12,0,0,1,.548,1.876,59.245,59.245,0,0,1-4.9,14.1,11.862,11.862,0,0,1-.132,3.356c0,.019-.007.039-.012.059a9.655,9.655,0,0,1-2.071,4.568,1.312,1.312,0,0,1-.759.443,16.083,16.083,0,0,1,2.49,1.3,14.663,14.663,0,0,1,6.313,8.2,13.449,13.449,0,0,1-1.944,11.26q-.03.047-.065.091l-12.616,16.261c-.015.02-.031.039-.047.057-3.052,3.5-9.483,5-14.064,5.22Q1253.159,751.118,1251.968,751.118Zm.545-71.664c-2.752,4.623-2.87,14.147-2.871,14.246a1.3,1.3,0,0,1-.212.7,8.421,8.421,0,0,0-1.563,3.976,1.313,1.313,0,0,1-1.287,1.041c-11.534.3-20.145,4.642-24.227,12.238-3.7,6.887-3.106,15.708,1.551,23.021,2.829,4.442,11.449,14.68,30.344,13.776,4.368-.209,9.819-1.617,12.178-4.294l12.557-16.185c4.221-6.573,1.094-12.8-3.609-15.8s-11.733-3.254-16,3.338a1.32,1.32,0,0,1-1.786.412c-4.7-2.823-11.6-2.85-15.638,3.761-2.9,4.748-2.852,11.774,4.1,15.98a1.3,1.3,0,0,1,.439,1.8,1.32,1.32,0,0,1-1.807.436,14.085,14.085,0,0,1-6.941-9.408,14.776,14.776,0,0,1,9.94-16.486,13.459,13.459,0,0,1,10.188,1.085,13.348,13.348,0,0,1,8.8-5.418,14.183,14.183,0,0,1,6.363.539,1.3,1.3,0,0,1,.019-1.657,7.106,7.106,0,0,0,1.5-3.382c0-.019.008-.038.012-.057a9.332,9.332,0,0,0,.061-2.9,1.3,1.3,0,0,1,.138-.791,58.005,58.005,0,0,0,4.7-13.093,24.871,24.871,0,0,0-10.785,4.258,1.322,1.322,0,0,1-1.4.1,15.443,15.443,0,0,0-4.533-1.572,14.313,14.313,0,0,0-4.055-.144,1.315,1.315,0,0,1-1.423-1A22.772,22.772,0,0,0,1252.513,679.453Z" transform="translate(-1217.315 -676.526)" fill="#58b5c9"/>
    </g>
    <g id="组_7" data-name="组 7" transform="translate(61.081 25.54)">
      <g id="组_4" data-name="组 4" transform="translate(1.636 0)">
        <path id="路径_4" data-name="路径 4" d="M1508.7,795.622h-.011l-4.276-.054a.871.871,0,1,1,.023-1.742l4.276.054a.871.871,0,0,1-.011,1.742Z" transform="translate(-1503.546 -793.826)" fill="#58b5c9"/>
      </g>
      <g id="组_5" data-name="组 5" transform="translate(0 5.371)">
        <path id="路径_5" data-name="路径 5" d="M1499.954,822.836a.876.876,0,0,1-.575-.214l-3-2.6a.867.867,0,0,1-.084-1.229.88.88,0,0,1,1.237-.084l3,2.6a.867.867,0,0,1,.084,1.229A.876.876,0,0,1,1499.954,822.836Z" transform="translate(-1496.079 -818.495)" fill="#58b5c9"/>
      </g>
      <g id="组_6" data-name="组 6" transform="translate(1.251 2.951)">
        <path id="路径_6" data-name="路径 6" d="M1505.593,810.232a.876.876,0,0,1-.312-.058l-2.93-1.112a.869.869,0,0,1-.506-1.124.878.878,0,0,1,1.131-.5l2.93,1.112a.87.87,0,0,1-.313,1.685Z" transform="translate(-1501.787 -807.377)" fill="#58b5c9"/>
      </g>
    </g>
    <g id="组_11" data-name="组 11" transform="translate(18.675 9.362)">
      <g id="组_8" data-name="组 8" transform="translate(2.803 0)">
        <path id="路径_7" data-name="路径 7" d="M1319.555,723.92a.876.876,0,0,1-.547-.191l-3.339-2.655a.867.867,0,0,1-.137-1.224.88.88,0,0,1,1.232-.136l3.339,2.655a.867.867,0,0,1,.137,1.224A.876.876,0,0,1,1319.555,723.92Z" transform="translate(-1315.34 -719.523)" fill="#58b5c9"/>
      </g>
      <g id="组_9" data-name="组 9" transform="translate(0 7.838)">
        <path id="路径_8" data-name="路径 8" d="M1303.421,757.38a.871.871,0,0,1-.025-1.741l3.977-.117a.871.871,0,1,1,.052,1.741l-3.977.117Z" transform="translate(-1302.545 -755.521)" fill="#58b5c9"/>
      </g>
      <g id="组_10" data-name="组 10" transform="translate(1.581 4.19)">
        <path id="路径_9" data-name="路径 9" d="M1313.613,741.5a.877.877,0,0,1-.278-.045l-2.974-.988a.869.869,0,0,1-.553-1.1.878.878,0,0,1,1.109-.55l2.974.988a.87.87,0,0,1-.277,1.7Z" transform="translate(-1309.762 -738.767)" fill="#58b5c9"/>
      </g>
    </g>
    <g id="组_12" data-name="组 12" transform="translate(35.236 20.777)">
      <path id="路径_10" data-name="路径 10" d="M1382.77,776.057a4.7,4.7,0,0,1-4.565-2.874.869.869,0,0,1,.432-1.155.879.879,0,0,1,1.162.429c.669,1.45,1.826,2.026,3.647,1.817a.871.871,0,1,1,.2,1.73A7.621,7.621,0,0,1,1382.77,776.057Z" transform="translate(-1378.126 -771.949)" fill="#58b5c9"/>
    </g>
    <g id="组_13" data-name="组 13" transform="translate(45.285 24.836)">
      <path id="路径_11" data-name="路径 11" d="M1427.827,793.792a4.646,4.646,0,0,1-3.63-1.765.867.867,0,0,1,.1-1.227.88.88,0,0,1,1.235.1c1.038,1.217,2.311,1.462,4.005.77a.878.878,0,0,1,1.144.475.869.869,0,0,1-.478,1.136A6.309,6.309,0,0,1,1427.827,793.792Z" transform="translate(-1423.989 -790.593)" fill="#58b5c9"/>
    </g>
  </g>
  <text id="CAT_HOME" data-name="CAT HOME" transform="translate(98 61)" fill="#58b5c9" font-size="30" font-family="Pacifico-Regular, Pacifico"><tspan x="0" y="0">CAT HOME</tspan></text>
</svg>
