<svg xmlns="http://www.w3.org/2000/svg" viewBox="0 0 755.67 221.78"><defs><style>.cls-1,.cls-2{fill:none;stroke:#58b5c9;stroke-linecap:round;stroke-linejoin:round;}.cls-1{stroke-width:7.68px;}.cls-2{stroke-width:5.12px;}.cls-3{font-size:75px;fill:#58b5c9;font-family:Pacifico-Regular, Pacifico;letter-spacing:0.16em;}</style></defs><title>资源 1</title><g id="图层_2" data-name="图层 2"><g id="图层_1-2" data-name="图层 1"><path class="cls-1" d="M81.93,177c-43.48-26.48-5-90.33,37.67-64.57,26.94-41.89,90.57-1,63.63,40.91l-36.84,47.78c-7.64,8.82-24.36,13.34-38.34,14C-14.46,221.06-37.67,66.6,85.44,63.42h0c1.37-6.6,1.88-8,5.1-13,0,0,.27-31.52,10.05-45.54,1-1.51,3-1.32,4.16.1,7.58,9,13.63,19.15,15.62,27.74a45.25,45.25,0,0,1,12.94.46,48.94,48.94,0,0,1,14.36,5Q161.86,27.74,183,24.66a2.42,2.42,0,0,1,2.7,2.85c-3,15.17-8.63,29.38-14.48,41.51l0,0a31.29,31.29,0,0,1-.21,9.84l0,.08a24.56,24.56,0,0,1-5.23,11.72"/><line class="cls-2" x1="185.71" y1="77.6" x2="198.19" y2="77.76"/><line class="cls-2" x1="180.93" y1="93.39" x2="189.68" y2="101.02"/><line class="cls-2" x1="184.58" y1="86.27" x2="193.14" y2="89.54"/><line class="cls-2" x1="75.05" y1="37.87" x2="65.3" y2="30.07"/><line class="cls-2" x1="68.72" y1="53.1" x2="57.11" y2="53.44"/><line class="cls-2" x1="70.41" y1="45.28" x2="61.73" y2="42.38"/><path class="cls-2" d="M105.47,63.61c2.38,5.2,6.69,7.58,13.27,6.81"/><path class="cls-2" d="M134.81,75.54c3.7,4.36,8.49,5.49,14.62,3"/><text class="cls-3" transform="translate(206.6 187.51)">CAT HOME</text></g></g></svg>