<svg xmlns="http://www.w3.org/2000/svg" width="159.683" height="257.46" viewBox="0 0 159.683 257.46">
  <g id="组_17" data-name="组 17" transform="translate(-27.232 -320.981)">
    <path id="路径_16" data-name="路径 16" d="M151.36,525.487c21.334-2.029,27.525-69.644,7.243-74.28,2.029-20.861-34.209-70.234-44.618-76.78-3.04-1.911-6.649-12.75-8.258-15.84,0,0,10.9-31,6.249-31.194s-21.17,17.482-21.17,17.482c-1.159-.951-10.639-2.064-12.526-1.423.366.378-9.1-24.679-12.1-22.312-2.455,1.932-10.529,30.934-10.529,30.934l.118-.029c-4.643,8.539-2.885,9.425-4.945,13.594-7.814,15.814,14.491,31.916,29.941,26.753,1.033,22.9-4.752,14.175,11.319,62.42-32.451,5.682-6.5,75.441,19.894,70.735Z" transform="translate(-0.408)" fill="#0f1519"/>
    <path id="路径_17" data-name="路径 17" d="M69.5,365.851c2.986,5.423-5.98,8.248-9.92,4.353C51.22,361.872,64.767,356.171,69.5,365.851Z" transform="translate(-0.554 -0.758)" fill="#e0f9ff"/>
    <ellipse id="椭圆_20" data-name="椭圆 20" cx="3.368" cy="4.02" rx="3.368" ry="4.02" transform="translate(61.695 361.169)" fill="#0f1519"/>
    <path id="路径_18" data-name="路径 18" d="M81.974,367.024c-2.986,5.422,5.98,8.247,9.92,4.353C100.25,363.044,86.7,357.344,81.974,367.024Z" transform="translate(-1.02 -0.78)" fill="#e0f9ff"/>
    <ellipse id="椭圆_21" data-name="椭圆 21" cx="3.368" cy="4.02" rx="3.368" ry="4.02" transform="translate(85.606 361.668)" fill="#0f1519"/>
    <path id="路径_19" data-name="路径 19" d="M48.813,365.158c-5.511-4.246-11.968-6-19.078-6.032" transform="translate(-0.037 -0.727)" fill="none" stroke="#000" stroke-linecap="round" stroke-linejoin="round" stroke-width="1"/>
    <path id="路径_20" data-name="路径 20" d="M46.324,372.178c-5.724-1.416-11.95-1.237-18.508,0" transform="translate(0 -0.956)" fill="none" stroke="#000" stroke-linecap="round" stroke-linejoin="round" stroke-width="1"/>
    <path id="路径_21" data-name="路径 21" d="M46.36,380.494c-6.745-.108-12.07,2.864-16.625,5.5" transform="translate(-0.037 -1.134)" fill="none" stroke="#000" stroke-linecap="round" stroke-linejoin="round" stroke-width="1"/>
    <path id="路径_22" data-name="路径 22" d="M118.4,527.979c-23.468,20.446,18.606,56.326,56.363,54.325,11.216-1.4,20.371-12.149,7.389-11.3-29.865,2.04-74.838-23.324-51.283-43.026Z" transform="translate(-1.597 -3.943)" fill="#0f1519"/>
  </g>
</svg>
